<svg xmlns="http://www.w3.org/2000/svg" version="1.1" xmlns:xlink="http://www.w3.org/1999/xlink" xmlns:svgjs="http://svgjs.dev/svgjs" width="1440" height="8600" preserveAspectRatio="none" viewBox="0 0 1440 8600">
    <g mask="url(&quot;#SvgjsMask1095&quot;)" fill="none">
        <rect width="1440" height="8600" x="0" y="0" fill="rgba(255, 255, 255, 1)"></rect>
        <path d="M94.552,3193.189C162.002,3189.733,221.023,3149.127,252.557,3089.403C282.085,3033.478,274.206,2967.482,242.669,2912.664C211.037,2857.681,157.982,2815.32,94.552,2814.755C30.243,2814.182,-23.33,2855.95,-58.211,2909.981C-97.053,2970.146,-128.224,3044.141,-94.226,3107.17C-59.04,3172.4,20.534,3196.981,94.552,3193.189" fill="rgba(6, 190, 225, 1)" class="triangle-float3"></path>
        <path d="M573.865,2624.826C737.766,2626.354,881.237,2521.78,960.956,2378.564C1038.445,2239.355,1045.643,2066.434,959.172,1932.619C878.779,1808.21,721.987,1780.354,573.865,1779.534C423.815,1778.704,261.368,1801.537,181.098,1928.313C96.335,2062.186,121.249,2233.44,199.079,2371.459C278.467,2512.242,412.248,2623.319,573.865,2624.826" fill="rgba(6, 190, 225, 1)" class="triangle-float2"></path>
        <path d="M584.26 3161.85 a459.94 459.94 0 1 0 919.88 0 a459.94 459.94 0 1 0 -919.88 0z" fill="rgba(6, 190, 225, 1)" class="triangle-float2"></path>
        <path d="M54.021,1511.919C101.276,1512.616,133.368,1468.642,155.234,1426.745C175.155,1388.574,181.436,1344.431,161.291,1306.378C139.805,1265.792,99.924,1236.882,54.021,1235.562C5.866,1234.178,-42.577,1256.985,-64.491,1299.887C-84.959,1339.957,-64.098,1384.556,-42.145,1423.832C-19.413,1464.502,7.434,1511.231,54.021,1511.919" fill="rgba(6, 190, 225, 1)" class="triangle-float2"></path>
        <path d="M230.995,567.475C292.939,565.101,331.539,506.221,359.506,450.899C384.171,402.11,393.971,345.731,367.19,298.071C339.905,249.514,286.66,224.12,230.995,222.2C171.352,220.143,108.701,237.211,77.492,288.078C45.076,340.913,54.357,407.123,84.205,461.451C115.355,518.149,166.35,569.953,230.995,567.475" fill="rgba(6, 190, 225, 1)" class="triangle-float3"></path>
        <path d="M966.96 4270.53 a360.59 360.59 0 1 0 721.18 0 a360.59 360.59 0 1 0 -721.18 0z" fill="rgba(6, 190, 225, 1)" class="triangle-float1"></path>
        <path d="M282.614,3951.811C387.557,3945.667,480.907,3888.287,532.733,3796.827C583.809,3706.69,584.288,3597.84,534.752,3506.848C482.857,3411.522,391.095,3340.847,282.614,3337.381C168.252,3333.728,61.445,3392.683,0.938,3489.795C-63.399,3593.054,-87.288,3725.54,-23.957,3829.419C37.433,3930.114,164.883,3958.704,282.614,3951.811" fill="rgba(6, 190, 225, 1)" class="triangle-float3"></path>
        <path d="M670.81 5795.44 a265.15 265.15 0 1 0 530.3 0 a265.15 265.15 0 1 0 -530.3 0z" fill="rgba(6, 190, 225, 1)" class="triangle-float2"></path>
        <path d="M1084.14 21.09 a282.88 282.88 0 1 0 565.76 0 a282.88 282.88 0 1 0 -565.76 0z" fill="rgba(6, 190, 225, 1)" class="triangle-float1"></path>
        <path d="M853.589,8302.118C953.063,8298.863,1060.678,8283.557,1112.124,8198.357C1164.883,8110.982,1136.461,8003.58,1088.143,7913.673C1036.406,7817.404,962.784,7721.881,853.589,7717.29C738.298,7712.442,640.109,7792.596,582.188,7892.399C524.013,7992.639,499.988,8119.67,563.991,8216.292C623.584,8306.257,745.735,8305.647,853.589,8302.118" fill="rgba(6, 190, 225, 1)" class="triangle-float2"></path>
        <path d="M-326.86 7635.04 a432.96 432.96 0 1 0 865.92 0 a432.96 432.96 0 1 0 -865.92 0z" fill="rgba(6, 190, 225, 1)" class="triangle-float3"></path>
        <path d="M934.427,2008.958C1032.031,2008.88,1112.593,1940.668,1160.567,1855.668C1207.63,1772.281,1219.86,1670.875,1172.066,1587.905C1124.198,1504.807,1030.259,1459.492,934.427,1463.089C844.415,1466.467,770.821,1526.638,725.798,1604.654C680.792,1682.64,666.37,1776.014,707.66,1856.03C752.47,1942.867,836.71,2009.036,934.427,2008.958" fill="rgba(6, 190, 225, 1)" class="triangle-float3"></path>
        <path d="M512.02 8187.03 a416.25 416.25 0 1 0 832.5 0 a416.25 416.25 0 1 0 -832.5 0z" fill="rgba(6, 190, 225, 1)" class="triangle-float3"></path>
        <path d="M659.61 783.38 a313.75 313.75 0 1 0 627.5 0 a313.75 313.75 0 1 0 -627.5 0z" fill="rgba(6, 190, 225, 1)" class="triangle-float3"></path>
        <path d="M753.09 4985.84 a440.97 440.97 0 1 0 881.94 0 a440.97 440.97 0 1 0 -881.94 0z" fill="rgba(6, 190, 225, 1)" class="triangle-float3"></path>
        <path d="M766.74 152.92 a438.3 438.3 0 1 0 876.6 0 a438.3 438.3 0 1 0 -876.6 0z" fill="rgba(6, 190, 225, 1)" class="triangle-float1"></path>
        <path d="M581.18 2011.61 a355.55 355.55 0 1 0 711.1 0 a355.55 355.55 0 1 0 -711.1 0z" fill="rgba(48, 76, 204, 1)" class="triangle-float2"></path>
        <path d="M1471.512,2798.139C1595.951,2796.258,1709.37,2728.977,1771.563,2621.178C1833.721,2513.44,1834.76,2381.825,1774.46,2273.036C1712.228,2160.763,1599.872,2078.524,1471.512,2079.849C1345.118,2081.154,1242.15,2169.567,1179.208,2279.182C1116.564,2388.277,1093.587,2520.884,1155.325,2630.494C1218.073,2741.897,1343.668,2800.072,1471.512,2798.139" fill="rgba(6, 190, 225, 1)" class="triangle-float1"></path>
        <path d="M696.921,1311.2C798.775,1312.703,885.416,1241.685,933.315,1151.784C978.352,1067.255,974.479,965.618,924.621,883.84C876.771,805.356,788.833,765.266,696.921,764.05C602.584,762.802,506.46,796.404,458.54,877.673C409.969,960.047,426.232,1061.188,472.308,1144.983C520.409,1232.461,597.102,1309.727,696.921,1311.2" fill="rgba(6, 190, 225, 1)" class="triangle-float3"></path>
        <path d="M230.27 3679.36 a337.13 337.13 0 1 0 674.26 0 a337.13 337.13 0 1 0 -674.26 0z" fill="rgba(6, 190, 225, 1)" class="triangle-float2"></path>
    </g>
    <defs>
        <mask id="SvgjsMask1095">
            <rect width="1440" height="8600" fill="#ffffff"></rect>
        </mask>
        <style>
            @keyframes float1 {
                    0%{transform: translate(0, 0)}
                    50%{transform: translate(-10px, 0)}
                    100%{transform: translate(0, 0)}
                }

                .triangle-float1 {
                    animation: float1 5s infinite;
                }

                @keyframes float2 {
                    0%{transform: translate(0, 0)}
                    50%{transform: translate(-5px, -5px)}
                    100%{transform: translate(0, 0)}
                }

                .triangle-float2 {
                    animation: float2 4s infinite;
                }

                @keyframes float3 {
                    0%{transform: translate(0, 0)}
                    50%{transform: translate(0, -10px)}
                    100%{transform: translate(0, 0)}
                }

                .triangle-float3 {
                    animation: float3 6s infinite;
                }
        </style>
    </defs>
</svg>